Coordinates
version=1
nRows=17
nColumns=40
inDegrees=yes

Units are S.I. units (second, meters, Newtons, ...)
Angles are in degrees.

endheader
time	pelvis_tilt	pelvis_list	pelvis_rotation	pelvis_tx	pelvis_ty	pelvis_tz	hip_flexion_r	hip_adduction_r	hip_rotation_r	knee_angle_r	knee_angle_r_beta	ankle_angle_r	subtalar_angle_r	mtp_angle_r	hip_flexion_l	hip_adduction_l	hip_rotation_l	knee_angle_l	knee_angle_l_beta	ankle_angle_l	subtalar_angle_l	mtp_angle_l	lumbar_extension	lumbar_bending	lumbar_rotation	arm_flex_r	arm_add_r	arm_rot_r	elbow_flex_r	pro_sup_r	wrist_flex_r	wrist_dev_r	arm_flex_l	arm_add_l	arm_rot_l	elbow_flex_l	pro_sup_l	wrist_flex_l	wrist_dev_l
      0.60000000	     -2.18367173	      0.65087802	     -0.87848465	     -0.62473666	      0.96662112	     -1.39166324	      4.50343990	      0.45123898	    -17.18210298	    -13.36627426	     -0.23328549	      5.72098527	      3.50613962	     -6.83513303	     22.27285194	      7.22487059	     15.86553209	    -43.87039998	     -0.76568292	      4.57807907	     16.22993426	     11.51124912	     -2.57741216	     -1.88732199	      7.46230424	      7.08600342	    -11.99149625	    -15.84754177	     20.98734365	     89.95437384	      0.00000000	      0.00000000	     -8.27413008	     10.63356936	     14.95846257	     13.78698554	     89.95437384	      0.00000000	      0.00000000
      0.61000000	     -2.44707819	      0.87775984	     -1.55430817	     -0.61713047	      0.96614729	     -1.39058928	      4.17880229	      0.27759126	    -16.82072661	    -13.07839369	     -0.22826103	      5.97468044	      3.73884380	     -7.25982440	     22.73613840	      6.87988914	     16.68157675	    -41.17464207	     -0.71863307	      4.03883913	     15.63855998	     11.51525171	     -2.30506058	     -2.10501398	      8.08943195	      7.58968498	    -12.05654487	    -15.24297566	     21.29140735	     89.95437384	      0.00000000	      0.00000000	     -8.90676995	     10.44470665	     15.13344989	     13.54017098	     89.95437384	      0.00000000	      0.00000000
      0.62000000	     -2.63909208	      1.03751809	     -2.13506860	     -0.60932496	      0.96562842	     -1.38977573	      3.71184573	      0.15396340	    -16.66186689	    -12.70122796	     -0.22167825	      6.20460362	      4.17026235	     -7.61902050	     23.08373437	      6.58029989	     17.44264541	    -38.37644255	     -0.66979528	      3.31805391	     14.84537829	     11.52633387	     -2.10096385	     -2.23787160	      8.64347812	      8.05658875	    -12.21663476	    -14.27793342	     21.57997561	     89.95437384	      0.00000000	      0.00000000	     -9.49520074	     10.24643417	     15.47980984	     13.25326891	     89.95437384	      0.00000000	      0.00000000
      0.63000000	     -3.00992106	      0.85523775	     -2.53880257	     -0.60169194	      0.96464249	     -1.38910075	      3.50869356	      0.40287987	    -16.67958643	    -12.49708669	     -0.21811531	      6.46509731	      4.35449691	     -7.73055050	     23.74426503	      6.59106820	     17.72969502	    -35.79192738	     -0.62468698	      2.98562399	     14.11144965	     11.47034464	     -1.73640348	     -1.96802155	      9.04181019	      8.47536448	    -12.32766148	    -13.72533306	     21.95764974	     89.95437384	      0.00000000	      0.00000000	    -10.12251044	     10.05479607	     15.61414356	     13.07993090	     89.95437384	      0.00000000	      0.00000000
      0.64000000	     -2.61101040	      1.29261268	     -3.16429429	     -0.59321232	      0.96489411	     -1.38848120	      2.34152779	     -0.12497625	    -16.64813158	    -12.07278490	     -0.21070985	      6.82270916	      5.23186172	     -8.44638116	     23.14023671	      6.01984371	     18.93710740	    -32.61997540	     -0.56932597	      2.25889641	     13.24369306	     11.41768541	     -2.15877107	     -2.46112543	      9.44183602	      9.02829809	    -12.38915607	    -12.58902665	     22.30427651	     89.95437384	      0.00000000	      0.00000000	    -10.58444929	      9.85470958	     16.62151524	     12.63206889	     89.95437384	      0.00000000	      0.00000000
      0.65000000	     -2.97189046	      0.94144764	     -3.32736549	     -0.58542144	      0.96351074	     -1.38807816	      2.06077678	      0.30747326	    -16.98981765	    -11.82280147	     -0.20634681	      7.15985806	      5.28939999	     -8.55748248	     23.96669488	      6.31065543	     19.44151497	    -30.55934027	     -0.53336111	      2.41403276	     13.02783767	     11.43098343	     -1.80865505	     -2.01885881	      9.57444145	      9.52051752	    -12.44185785	    -12.42126086	     22.55001793	     89.95437384	      0.00000000	      0.00000000	    -11.09914292	      9.71122210	     16.68625545	     12.28560889	     89.95437384	      0.00000000	      0.00000000
      0.66000000	     -2.55696100	      1.43478310	     -3.94342075	     -0.57703372	      0.96352270	     -1.38777346	      1.02800054	     -0.43960103	    -17.38903135	    -11.59606592	     -0.20238953	      6.58325706	      6.93234888	    -14.98786258	     23.16113847	      5.54684861	     20.24281634	    -27.04039455	     -0.47194392	      1.02963420	     11.63579590	      8.80626990	     -2.29456097	     -2.57429912	      9.91098991	      9.93756774	    -12.53914130	    -11.16180602	     23.19208278	     89.95437384	      0.00000000	      0.00000000	    -11.54245243	      9.49077026	     17.98135720	     11.95406249	     89.95437384	      0.00000000	      0.00000000
      0.67000000	     -2.83849991	      1.30640111	     -4.20535851	     -0.56933436	      0.96221090	     -1.38752869	      0.79157749	     -0.29028908	    -17.27481107	    -11.56244030	     -0.20180265	      6.94415212	      6.91154985	    -15.00491760	     23.63382161	      5.52795324	     20.39716096	    -24.56062185	     -0.42866372	      0.85973080	     10.63213680	      8.84063569	     -2.06425123	     -2.40550769	     10.09417773	     10.27795107	    -12.53687485	    -10.81174252	     23.68847604	     89.95437384	      0.00000000	      0.00000000	    -11.97955994	      9.40002489	     18.06916712	     11.61203251	     89.95437384	      0.00000000	      0.00000000
      0.68000000	     -2.66974184	      1.51570822	     -4.72339683	     -0.56131339	      0.96156582	     -1.38708360	      0.11881254	     -0.57880921	    -17.07114241	    -11.59304124	     -0.20233674	      7.52933108	      6.93085419	    -15.15522040	     23.41055270	      5.27208603	     21.21152052	    -21.88382033	     -0.38194472	      0.35579999	      9.30029004	      8.89744527	     -2.32734208	     -2.64812643	     10.47402728	     10.74165061	    -12.61716080	     -9.94458077	     24.12558150	     89.95437384	      0.00000000	      0.00000000	    -12.26740505	      9.32837286	     18.36674214	     11.18264180	     89.95437384	      0.00000000	      0.00000000
      0.69000000	     -2.69313391	      1.53300129	     -5.06606952	     -0.55338895	      0.96048352	     -1.38687102	     -0.36659435	     -0.64684099	    -16.92433235	    -11.59834247	     -0.20242926	      7.95997583	      7.07673921	    -15.32119903	     23.54157537	      5.18484257	     21.60022773	    -19.55000627	     -0.34121198	     -0.00318162	      7.97772032	      8.81469902	     -2.38013585	     -2.67902267	     10.67667226	     11.11256518	    -12.54782535	     -9.83567391	     24.61070372	     89.95437384	      0.00000000	      0.00000000	    -12.56846098	      9.26062380	     18.52776601	     10.78398951	     89.95437384	      0.00000000	      0.00000000
      0.70000000	     -2.92854133	      1.46051319	     -5.31429879	     -0.54561311	      0.95896061	     -1.38683564	     -0.55100044	     -0.60241903	    -16.67584262	    -11.77074924	     -0.20543833	      8.37159126	      7.05079033	    -15.41265464	     23.99227220	      5.20223269	     21.58804375	    -17.47396245	     -0.30497818	     -0.33558833	      6.53897487	      8.75809747	     -2.21778194	     -2.59156312	     10.83505124	     11.45139379	    -12.56889838	     -9.43148903	     25.02082624	     89.95437384	      0.00000000	      0.00000000	    -12.86362785	      9.23155512	     18.52554836	     10.43820615	     89.95437384	      0.00000000	      0.00000000
      0.71000000	     -2.93010883	      1.65596879	     -5.73561127	     -0.53746644	      0.95774972	     -1.38657671	     -0.91942319	     -0.90408427	    -16.43733771	    -12.04885143	     -0.21029213	      9.06225290	      6.89983074	    -15.61430477	     24.05518465	      5.03639932	     22.11839237	    -15.35070338	     -0.26792032	     -1.03866917	      4.55637576	      8.61955372	     -2.27504635	     -2.84893483	     11.14409959	     11.64523033	    -12.48495446	     -9.17220726	     25.67878530	     89.95437384	      0.00000000	      0.00000000	    -13.06862579	      9.26418309	     18.58492872	     10.03639822	     89.95437384	      0.00000000	      0.00000000
      0.72000000	     -3.07561293	      1.54833165	     -5.92299968	     -0.52943632	      0.95613688	     -1.38687568	     -1.15726365	     -0.86857983	    -16.20539569	    -12.35172869	     -0.21557833	      9.43842919	      6.89627744	    -15.69578561	     24.47200100	      5.10145708	     22.16521781	    -13.68804883	     -0.23890152	     -1.17146246	      3.08955543	      8.47538458	     -2.22437064	     -2.71426028	     11.19819850	     11.94542320	    -12.45306345	     -9.09929586	     26.15885147	     89.95437384	      0.00000000	      0.00000000	    -13.34015814	      9.24152664	     18.51023916	      9.79694300	     89.95437384	      0.00000000	      0.00000000
      0.73000000	     -2.90813692	      1.69760403	     -6.31820110	     -0.52071349	      0.95498301	     -1.38697900	     -1.74201974	     -1.19455663	    -15.97768371	    -12.66743814	     -0.22108850	      9.98760006	      7.05106131	    -16.04491806	     24.43910177	      5.11311376	     23.28751639	    -12.16712909	     -0.21235646	     -1.99728797	      0.08550844	      7.93904199	     -2.40436013	     -2.89380577	     11.44536014	     12.11088103	    -12.41741763	     -8.75114554	     26.73531225	     89.95437384	      0.00000000	      0.00000000	    -13.61620998	      9.28237317	     18.02098869	      9.55882359	     89.95437384	      0.00000000	      0.00000000
      0.74000000	     -3.11531961	      1.56672731	     -6.42542611	     -0.51243846	      0.95317050	     -1.38696323	     -1.98386717	     -1.08382593	    -15.90363668	    -12.88666725	     -0.22491477	     10.42409633	      6.94983589	    -16.12649883	     24.91969236	      5.20004046	     22.96331564	    -10.81399971	     -0.18873990	     -2.20470941	     -1.00490153	      7.87347039	     -2.25803602	     -2.80854451	     11.47833792	     12.26141259	    -12.27003445	     -8.77385932	     27.17888303	     89.95437384	      0.00000000	      0.00000000	    -13.75038952	      9.39768599	     17.98526732	      9.27190892	     89.95437384	      0.00000000	      0.00000000
      0.75000000	     -2.98682553	      1.74144426	     -6.64722433	     -0.50355986	      0.95188437	     -1.38729023	     -2.54050862	     -1.43383735	    -15.87018047	    -13.22911276	     -0.23089157	     10.93813958	      6.90832175	    -16.33325751	     24.88039078	      5.02053687	     23.50865663	     -9.41415829	     -0.16430806	     -3.08692329	     -2.84900574	      7.66342847	     -2.40298304	     -3.06050572	     11.64915532	     12.31726938	    -12.17796777	     -8.57181190	     27.71836513	     89.95437384	      0.00000000	      0.00000000	    -13.91010580	      9.54599817	     17.69961400	      9.12546100	     89.95437384	      0.00000000	      0.00000000
      0.76000000	     -3.03784095	      1.67616219	     -6.68867422	     -0.49484450	      0.95024971	     -1.38769324	     -3.02581022	     -1.44038310	    -15.84496663	    -13.36981771	     -0.23334734	     11.41110019	      6.84536757	    -16.42812346	     25.13113504	      5.03205851	     23.21543162	     -8.40364411	     -0.14667126	     -3.40849138	     -3.74119223	      7.60650111	     -2.39336160	     -3.03878474	     11.61635639	     12.37734395	    -12.02938621	     -8.65480538	     28.19772366	     89.95437384	      0.00000000	      0.00000000	    -14.02510394	      9.66913428	     17.54635042	      8.95680564	     89.95437384	      0.00000000	      0.00000000
